<svg width="39" height="41" viewBox="0 0 39 41" fill="none" xmlns="http://www.w3.org/2000/svg">
<path d="M3.05159 27.0991C2.32793 26.2962 1.73649 25.5287 1.27725 24.7963C0.818001 24.0638 0.588379 23.4793 0.588379 23.0427C0.588379 22.6061 0.811038 22.1201 1.25636 21.5848C1.71561 21.0356 2.32098 20.4439 3.07247 19.8101C3.82396 19.1763 4.68677 18.5073 5.66093 17.803C6.63509 17.0987 7.63703 16.4086 8.66686 15.7325C9.71066 15.0564 10.7474 14.4156 11.7773 13.8099C12.821 13.1902 13.7812 12.6549 14.6579 12.2042C16.5645 11.1901 17.7544 10.6831 18.2275 10.6831C18.6311 10.6831 19.0973 11.0915 19.6261 11.9085C19.7513 12.0915 19.8418 12.2394 19.8975 12.3521C18.8816 12.831 17.2395 13.8803 14.9711 15.5001C12.7166 17.1058 11.2205 18.1904 10.4829 18.7537C9.7593 19.3031 9.11917 19.8101 8.56255 20.2749C7.31003 21.3032 6.69075 21.944 6.70467 22.1975C6.73249 22.437 6.87862 22.7258 7.14303 23.0637C7.40744 23.4018 7.7554 23.7821 8.18681 24.2047C8.99396 24.9793 10.0515 25.8808 11.3597 26.909C12.6818 27.9231 14.1918 29.0217 15.8896 30.2049C15.8339 30.6415 15.5138 31.1838 14.9293 31.8317C13.8577 33.0571 13.0993 33.6698 12.654 33.6698C12.2087 33.6698 11.5824 33.4796 10.7753 33.0993C9.98199 32.705 9.13314 32.1979 8.22852 31.5782C7.32395 30.9443 6.41937 30.2401 5.51481 29.4654C4.61024 28.6766 3.78917 27.8879 3.05159 27.0991Z" fill="white"/>
<path d="M32.6745 21.7764C32.6745 20.8044 30.1348 17.8255 25.0552 12.8393C25.3475 12.4309 25.6676 12.1492 26.0155 11.9942C26.3634 11.8252 26.6278 11.7408 26.8087 11.7408C26.9897 11.7408 27.2958 11.8605 27.7272 12.0999C28.1726 12.3393 28.6805 12.6633 29.251 13.0717C29.8356 13.4802 30.4618 13.9591 31.1298 14.5085C31.7978 15.0578 32.4658 15.6423 33.1337 16.262C33.8018 16.8677 34.4419 17.4944 35.0542 18.1424C35.6666 18.7762 36.2093 19.389 36.6825 19.9805C37.7262 21.3044 38.248 22.3186 38.248 23.0229C38.248 24.3187 35.8127 26.6287 30.9419 29.9527C27.9777 31.9668 25.4588 33.4317 23.3853 34.3472C22.7868 34.6008 22.3276 34.7275 22.0075 34.7275C21.7013 34.7275 21.3534 34.5937 20.9638 34.3261C20.5881 34.0444 20.2262 33.7064 19.8783 33.3119C19.1964 32.5092 18.7163 31.7274 18.438 30.9668C20.6229 29.9527 23.9906 27.9878 28.5414 25.0722C31.2968 23.3116 32.6745 22.213 32.6745 21.7764Z" fill="white"/>
<path d="M21.4231 37.7452C21.1381 38.726 20.8673 39.4039 20.6108 39.7789C20.3543 40.1827 20.0265 40.3846 19.6275 40.3846C19.0575 40.3846 18.1027 39.9519 16.7632 39.0866L16.9769 37.3558C17.1764 35.7981 17.3617 34.6298 17.5327 33.851C18.0172 31.9183 18.6157 29.7548 19.3283 27.3606L20.7391 22.3414C21.1381 20.8702 21.4801 19.3269 21.7651 17.7116C21.9361 16.8462 22.2211 15.5481 22.6201 13.8173L24.6294 4.9904C25.0855 2.97117 25.399 1.64425 25.57 1.00963C25.8835 1.00963 26.1685 0.995211 26.425 0.966365C26.6815 0.937519 26.938 0.923096 27.1945 0.923096C27.508 0.923096 27.8215 0.966365 28.1351 1.0529C29.0186 1.25483 29.6599 1.52887 30.0589 1.87502C30.4864 2.19233 30.7001 2.66829 30.7001 3.3029C30.7001 3.62021 30.6289 4.06733 30.4864 4.64425L29.2893 8.75483C28.5483 11.2933 27.9213 13.4423 27.4083 15.2019C27.0663 16.5866 26.539 18.6923 25.8265 21.5192L24.2019 27.8366C24.1734 27.9808 24.1307 28.1539 24.0737 28.3558C24.0167 28.5289 23.9597 28.7164 23.9027 28.9183C23.7032 29.6394 23.3469 30.9231 22.8339 32.7692C22.3209 34.6154 21.8506 36.2741 21.4231 37.7452Z" fill="white"/>
</svg>